<svg viewBox="0 0 584 584" fill="none" xmlns="http://www.w3.org/2000/svg">
<path d="M69.92 0.14502C31.7567 0.14502 0.52002 31.3817 0.52002 69.545V513.705C0.52002 551.868 31.7567 583.105 69.92 583.105H303.549C305.048 583.353 306.577 583.353 308.076 583.105H386.829C388.328 583.353 389.857 583.353 391.356 583.105H514.08C552.243 583.105 583.48 551.868 583.48 513.705V69.545C583.48 31.3817 552.243 0.14502 514.08 0.14502H69.92ZM69.92 27.905H514.08C537.239 27.905 555.72 46.3865 555.72 69.545V513.705C555.72 536.864 537.239 555.345 514.08 555.345H403.04V361.025H456.066L475.503 263.865H403.04V236.105C403.04 228.367 403.776 227.762 406.374 226.075C408.973 224.387 417.001 222.225 430.8 222.225H472.44V144.069L464.524 140.3C464.524 140.3 432.641 125.065 389.16 125.065C357.93 125.065 332.274 137.508 315.856 158.03C299.438 178.552 292 206.032 292 236.105V263.865H250.36V361.025H292V555.345H69.92C46.7615 555.345 28.28 536.864 28.28 513.705V69.545C28.28 46.3865 46.7615 27.905 69.92 27.905ZM389.16 152.825C418.017 152.825 436.177 159.188 444.68 162.557V194.465H430.8C414.827 194.465 402.026 195.786 391.247 202.788C380.469 209.789 375.28 223.079 375.28 236.105V291.625H441.617L433.294 333.265H375.28V555.345H319.76V333.265H278.12V291.625H319.76V236.105C319.76 210.658 326.202 189.558 337.544 175.38C348.886 161.202 364.87 152.825 389.16 152.825Z" fill="currentcolor"/>
</svg>
