<svg width="584" height="584" viewBox="0 0 584 584" fill="none" xmlns="http://www.w3.org/2000/svg">
<path d="M69.92 0.52002C31.7567 0.52002 0.52002 31.7567 0.52002 69.92V514.08C0.52002 552.243 31.7567 583.48 69.92 583.48H303.549C305.048 583.728 306.577 583.728 308.076 583.48H386.829C388.328 583.728 389.857 583.728 391.356 583.48H514.08C552.243 583.48 583.48 552.243 583.48 514.08V69.92C583.48 31.7567 552.243 0.52002 514.08 0.52002H69.92ZM69.92 28.28H514.08C537.239 28.28 555.72 46.7615 555.72 69.92V514.08C555.72 537.239 537.239 555.72 514.08 555.72H403.04V361.4H456.066L475.503 264.24H403.04V236.48C403.04 228.742 403.776 228.137 406.374 226.45C408.973 224.762 417.001 222.6 430.8 222.6H472.44V144.444L464.524 140.675C464.524 140.675 432.641 125.44 389.16 125.44C357.93 125.44 332.274 137.883 315.856 158.405C299.438 178.927 292 206.407 292 236.48V264.24H250.36V361.4H292V555.72H69.92C46.7615 555.72 28.28 537.239 28.28 514.08V69.92C28.28 46.7615 46.7615 28.28 69.92 28.28ZM389.16 153.2C418.017 153.2 436.177 159.563 444.68 162.932V194.84H430.8C414.827 194.84 402.026 196.161 391.247 203.163C380.469 210.164 375.28 223.454 375.28 236.48V292H441.617L433.294 333.64H375.28V555.72H319.76V333.64H278.12V292H319.76V236.48C319.76 211.033 326.202 189.933 337.544 175.755C348.886 161.577 364.87 153.2 389.16 153.2Z" fill="currentcolor"/>
</svg>
