<svg width="704" height="704" viewBox="0 0 704 704" fill="none" xmlns="http://www.w3.org/2000/svg">
<path d="M208 0C93.3197 0 0 93.3197 0 208V496C0 610.68 93.3197 704 208 704H496C610.68 704 704 610.68 704 496V208C704 93.3197 610.68 0 496 0H208ZM208 32H496C593.384 32 672 110.616 672 208V496C672 593.384 593.384 672 496 672H208C110.616 672 32 593.384 32 496V208C32 110.616 110.616 32 208 32ZM544 128C535.513 128 527.374 131.371 521.373 137.373C515.371 143.374 512 151.513 512 160C512 168.487 515.371 176.626 521.373 182.627C527.374 188.629 535.513 192 544 192C552.487 192 560.626 188.629 566.627 182.627C572.629 176.626 576 168.487 576 160C576 151.513 572.629 143.374 566.627 137.373C560.626 131.371 552.487 128 544 128ZM352 176C254.987 176 176 254.987 176 352C176 449.013 254.987 528 352 528C449.013 528 528 449.013 528 352C528 254.987 449.013 176 352 176ZM352 208C431.719 208 496 272.281 496 352C496 431.719 431.719 496 352 496C272.281 496 208 431.719 208 352C208 272.281 272.281 208 352 208Z" fill="currentcolor"/>
</svg>
