<svg viewBox="0 0 704 705" fill="none" xmlns="http://www.w3.org/2000/svg">
<path d="M208 0.625C93.3197 0.625 0 93.9447 0 208.625V496.625C0 611.305 93.3197 704.625 208 704.625H496C610.68 704.625 704 611.305 704 496.625V208.625C704 93.9447 610.68 0.625 496 0.625H208ZM208 32.625H496C593.384 32.625 672 111.241 672 208.625V496.625C672 594.009 593.384 672.625 496 672.625H208C110.616 672.625 32 594.009 32 496.625V208.625C32 111.241 110.616 32.625 208 32.625ZM544 128.625C535.513 128.625 527.374 131.996 521.373 137.998C515.371 143.999 512 152.138 512 160.625C512 169.112 515.371 177.251 521.373 183.252C527.374 189.254 535.513 192.625 544 192.625C552.487 192.625 560.626 189.254 566.627 183.252C572.629 177.251 576 169.112 576 160.625C576 152.138 572.629 143.999 566.627 137.998C560.626 131.996 552.487 128.625 544 128.625ZM352 176.625C254.987 176.625 176 255.612 176 352.625C176 449.638 254.987 528.625 352 528.625C449.013 528.625 528 449.638 528 352.625C528 255.612 449.013 176.625 352 176.625ZM352 208.625C431.719 208.625 496 272.906 496 352.625C496 432.344 431.719 496.625 352 496.625C272.281 496.625 208 432.344 208 352.625C208 272.906 272.281 208.625 352 208.625Z" fill="currentcolor"/>
</svg>
