<svg viewBox="0 0 206 155" fill="none" xmlns="http://www.w3.org/2000/svg">
<path d="M95.6899 81.049L95.6898 81.0489L7.87431 21.3568V20.125C7.87431 13.3704 13.3698 7.875 20.1229 7.875H185.877C192.63 7.875 198.126 13.3704 198.126 20.125V25.4811L110.596 81.2648C106.015 84.1834 100.165 84.0931 95.6899 81.049ZM114.554 87.4811L114.555 87.481L132.837 75.8296L196.997 139.997C195.053 144.201 190.8 147.125 185.877 147.125H20.1229C15.1996 147.125 10.9472 144.201 9.00325 139.997L73.8678 75.1246L91.5483 87.1429C95.0939 89.5537 99.195 90.7624 103.302 90.7624C107.205 90.7624 111.114 89.6717 114.554 87.4811ZM185.877 0.5H20.1229C9.28554 0.5 0.5 9.28617 0.5 20.125V134.875C0.5 145.714 9.28553 154.5 20.1229 154.5H185.877C196.715 154.5 205.5 145.714 205.5 134.875V20.125C205.5 9.28617 196.715 0.5 185.877 0.5ZM198.126 34.2213V130.833L139.122 71.8239L198.126 34.2213ZM7.87431 130.833V30.266L67.7413 70.9601L7.87431 130.833Z" fill="black" stroke="currentcolor"/>
</svg>
