<svg width="803" height="603" viewBox="0 0 803 603" fill="none" xmlns="http://www.w3.org/2000/svg">
<path d="M371.553 316.161L371.293 316.543L371.553 316.161L26.5001 81.6131V76.0084C26.5001 48.7102 48.7076 26.5028 76.0004 26.5028H726.09C753.384 26.5028 775.59 48.7102 775.59 76.0084V97.8167L431.623 317.031C413.164 328.792 389.589 328.428 371.553 316.161ZM445.577 338.947L445.308 338.525L445.577 338.947L518.269 292.62L771.447 545.826C763.799 563.309 746.355 575.565 726.09 575.565H76.0004C55.7354 575.565 38.2912 563.309 30.6428 545.826L286.61 289.83L356.953 337.645C370.611 346.932 386.409 351.588 402.229 351.588C417.264 351.588 432.322 347.387 445.577 338.947ZM726.09 0.5H76.0004C34.303 0.5 0.5 34.3052 0.5 76.0084V526.059C0.5 567.761 34.303 601.568 76.0004 601.568H726.09C767.787 601.568 801.59 567.761 801.59 526.059V76.0084C801.59 34.3052 767.787 0.5 726.09 0.5ZM775.59 128.631V513.736L540.396 278.518L775.59 128.631ZM26.5001 513.736V113.022L265.042 275.168L26.5001 513.736Z" fill="#F78E37" stroke="currentcolor"/>
</svg>
