<svg width="690" height="513" viewBox="0 0 690 513" fill="none" xmlns="http://www.w3.org/2000/svg">
<path d="M342.438 0.625C236.812 0.625 137.625 8.625 84.8125 19.8125C49.625 27.8125 19.1875 51.8125 12.8125 88.625C6.4375 127 0 184.625 0 256.625C0 328.625 6.37501 384.625 14.375 424.625C20.8125 459.813 51.1875 485.438 86.375 493.438C142.438 504.625 238.375 512.625 344 512.625C449.625 512.625 545.562 504.625 601.562 493.438C636.812 485.438 667.188 461.437 673.562 424.625C680 384.625 688 327.062 689.562 255.062C689.562 183.062 681.562 125.438 673.562 85.4375C667.188 50.25 636.812 24.625 601.562 16.625C545.562 8.625 448 0.625 342.438 0.625ZM342.438 32.625C457.625 32.625 550.375 42.1875 595.188 50.1875C619.188 56.625 638.375 72.625 641.562 93.4375C651.188 144.625 657.562 199.062 657.562 255.062C656 323.812 648 379.812 641.562 419.812C636.812 450.187 604.812 459.812 595.188 463.062C537.562 474.25 441.562 482.188 345.562 482.188C249.562 482.188 152 475.812 96 463.062C72 456.625 52.8125 440.625 49.625 419.812C36.8125 375 32 315.813 32 256.625C32 183 38.4375 128.625 44.8125 95.0625C49.625 64.625 83.1875 55 91.1875 51.8125C144 40.625 241.625 32.625 342.438 32.625ZM256 128.625V384.625L480 256.625L256 128.625ZM288 183.062L416 256.625L288 330.188V183.062Z" fill="currentcolor"/>
</svg>
