<svg width="690" height="512" viewBox="0 0 690 512" fill="none" xmlns="http://www.w3.org/2000/svg">
<path d="M342.438 0C236.812 0 137.625 8 84.8125 19.1875C49.625 27.1875 19.1875 51.1875 12.8125 88C6.4375 126.375 0 184 0 256C0 328 6.37501 384 14.375 424C20.8125 459.188 51.1875 484.812 86.375 492.812C142.438 504 238.375 512 344 512C449.625 512 545.562 504 601.562 492.812C636.812 484.812 667.188 460.812 673.562 424C680 384 688 326.438 689.562 254.438C689.562 182.438 681.562 124.812 673.562 84.8125C667.188 49.625 636.812 24 601.562 16C545.562 8 448 0 342.438 0ZM342.438 32C457.625 32 550.375 41.5625 595.188 49.5625C619.188 56 638.375 72 641.562 92.8125C651.188 144 657.562 198.438 657.562 254.438C656 323.188 648 379.188 641.562 419.188C636.812 449.562 604.812 459.188 595.188 462.438C537.562 473.625 441.562 481.562 345.562 481.562C249.562 481.562 152 475.188 96 462.438C72 456 52.8125 440 49.625 419.188C36.8125 374.375 32 315.188 32 256C32 182.375 38.4375 128 44.8125 94.4375C49.625 64 83.1875 54.375 91.1875 51.1875C144 40 241.625 32 342.438 32ZM256 128V384L480 256L256 128ZM288 182.438L416 256L288 329.562V182.438Z" fill="white"/>
</svg>
