<svg width="30" height="31" viewBox="0 0 30 31" fill="none" xmlns="http://www.w3.org/2000/svg">
<circle cx="15" cy="15.0635" r="12.75" stroke="currentcolor" stroke-width="2.5"/>
<path d="M14.9839 10.4795C14.4339 10.4795 13.9719 10.2815 13.5979 9.90746C13.2019 9.53346 13.0039 9.04946 13.0039 8.49946C13.0039 7.94946 13.2019 7.46546 13.5979 7.09146C13.9719 6.71746 14.4339 6.51946 14.9839 6.51946C15.5339 6.51946 16.0179 6.71746 16.4139 7.09146C16.7879 7.46546 16.9859 7.94946 16.9859 8.49946C16.9859 9.04946 16.7879 9.53346 16.4139 9.90746C16.0179 10.2815 15.5339 10.4795 14.9839 10.4795ZM13.3119 23.0635V11.6015H16.6559V23.0635H13.3119Z" fill="currentcolor"/>
</svg>
