<svg width="654" height="654" viewBox="0 0 654 654" fill="none" xmlns="http://www.w3.org/2000/svg">
<rect x="0.125977" width="653" height="654" rx="326.5" fill="#F78F37"/>
<path d="M555.469 304.049H97.8897C95.8626 304.05 93.8826 304.661 92.2074 305.802C90.5323 306.944 89.2396 308.564 88.4977 310.451C87.7558 312.338 87.5991 314.405 88.0479 316.383C88.4967 318.36 89.5303 320.156 91.0141 321.538L319.841 534.733C321.709 536.479 324.17 537.45 326.726 537.45C329.282 537.45 331.743 536.479 333.611 534.733L562.344 321.538C563.828 320.156 564.862 318.36 565.31 316.383C565.759 314.405 565.603 312.338 564.861 310.451C564.119 308.564 562.826 306.944 561.151 305.802C559.476 304.661 557.496 304.05 555.469 304.049ZM332.585 508.053L326.651 513.577L261.347 324.263H391.526L332.585 508.053Z" fill="#231F20"/>
<path d="M97.8897 292.114H555.469C557.496 292.114 559.476 291.503 561.151 290.361C562.826 289.219 564.119 287.599 564.861 285.712C565.603 283.825 565.759 281.759 565.31 279.781C564.862 277.804 563.828 276.007 562.344 274.626L447.949 168.023C446.094 166.295 443.656 165.329 441.121 165.317H212.284C209.733 165.317 207.276 166.284 205.409 168.023L91.0141 274.626C89.5303 276.007 88.4967 277.804 88.0479 279.781C87.5991 281.759 87.7558 283.825 88.4977 285.712C89.2396 287.599 90.5323 289.219 92.2074 290.361C93.8826 291.503 95.8626 292.114 97.8897 292.114ZM529.832 271.919H408.067L437.109 185.503L529.832 271.919ZM334.217 185.503L398.589 271.919H254.536L319.151 185.503H334.217ZM216.259 185.503L244.097 271.919H123.526L216.259 185.503Z" fill="#231F20"/>
</svg>
