<svg width="2161" height="244" viewBox="0 0 2161 244" fill="none" xmlns="http://www.w3.org/2000/svg">
<path d="M15.5779 3.01419H54.5192C61.6771 3.00879 68.7655 4.55595 75.3782 7.56716C81.9908 10.5784 87.9975 14.9943 93.0537 20.5617C98.11 26.1291 102.116 32.7385 104.843 40.0109C107.57 47.2833 108.964 55.0756 108.944 62.9411V82.8895C108.956 90.7523 107.556 98.5404 104.823 105.807C102.091 113.074 98.0795 119.677 93.0198 125.237C87.9601 130.796 81.9514 135.204 75.3382 138.207C68.7251 141.21 61.6375 142.748 54.482 142.735H31.1358V225.341C30.9965 229.775 29.2954 233.977 26.3912 237.06C23.4869 240.143 19.6067 241.867 15.5686 241.867C11.5305 241.867 7.6502 240.143 4.746 237.06C1.84179 233.977 0.140674 229.775 0.00136695 225.341V20.1507C-0.0260082 17.8937 0.35804 15.6534 1.13091 13.562C1.90377 11.4707 3.04976 9.5705 4.50141 7.97347C5.95306 6.37643 7.68101 5.11496 9.58332 4.26321C11.4856 3.41146 13.5239 2.98679 15.5779 3.01419ZM54.5192 37.2261H31.1358V108.543H54.482C57.5513 108.557 60.5927 107.903 63.4307 106.618C66.2688 105.334 68.8473 103.444 71.0177 101.06C73.188 98.6747 74.9071 95.8413 76.076 92.7227C77.2449 89.6042 77.8404 86.2622 77.8282 82.8895V62.9411C77.8478 59.5632 77.2578 56.2147 76.0922 53.089C74.9266 49.9634 73.2086 47.1228 71.0375 44.7314C68.8664 42.34 66.2853 40.4454 63.4436 39.1571C60.602 37.8689 57.556 37.2125 54.482 37.2261H54.5192Z" fill="black"/>
<path d="M125.855 182.571V61.4333C126.119 45.7498 131.974 30.8065 142.16 19.8176C152.347 8.82858 166.052 2.67188 180.327 2.67188C194.602 2.67188 208.307 8.82858 218.493 19.8176C228.68 30.8065 234.535 45.7498 234.798 61.4333V182.571C234.932 190.524 233.622 198.427 230.944 205.817C228.267 213.208 224.276 219.938 219.204 225.614C214.133 231.291 208.083 235.8 201.408 238.878C194.732 241.956 187.566 243.541 180.327 243.541C173.088 243.541 165.921 241.956 159.246 238.878C152.571 235.8 146.521 231.291 141.449 225.614C136.378 219.938 132.387 213.208 129.71 205.817C127.032 198.427 125.722 190.524 125.855 182.571ZM156.99 61.4333V182.571C156.99 189.375 159.45 195.9 163.828 200.711C168.206 205.522 174.144 208.225 180.336 208.225C186.528 208.225 192.466 205.522 196.844 200.711C201.223 195.9 203.682 189.375 203.682 182.571V61.4333C203.682 54.6295 201.223 48.1043 196.844 43.2933C192.466 38.4823 186.528 35.7794 180.336 35.7794C174.144 35.7794 168.206 38.4823 163.828 43.2933C159.45 48.1043 156.99 54.6295 156.99 61.4333Z" fill="black"/>
<path d="M264.561 223.915V18.7041C264.488 16.4081 264.838 14.1196 265.588 11.975C266.337 9.83039 267.473 7.87368 268.925 6.22136C270.378 4.56905 272.118 3.25498 274.043 2.35752C275.968 1.46005 278.037 0.997559 280.128 0.997559C282.219 0.997559 284.288 1.46005 286.213 2.35752C288.137 3.25498 289.878 4.56905 291.33 6.22136C292.783 7.87368 293.918 9.83039 294.668 11.975C295.418 14.1196 295.767 16.4081 295.695 18.7041V206.798H344.965C349.091 206.798 353.048 208.6 355.966 211.806C358.884 215.012 360.523 219.36 360.523 223.894C360.523 228.428 358.884 232.777 355.966 235.983C353.048 239.189 349.091 240.99 344.965 240.99H280.063C278.018 241.012 275.991 240.585 274.098 239.734C272.206 238.883 270.487 237.625 269.043 236.035C267.6 234.444 266.459 232.553 265.689 230.472C264.92 228.39 264.536 226.161 264.561 223.915Z" fill="black"/>
<path d="M377.378 225.341V18.7041C377.306 16.4081 377.656 14.1196 378.405 11.975C379.155 9.83039 380.29 7.87368 381.743 6.22137C383.196 4.56905 384.936 3.25498 386.861 2.35752C388.786 1.46005 390.855 0.997559 392.946 0.997559C395.036 0.997559 397.106 1.46005 399.03 2.35752C400.955 3.25498 402.696 4.56905 404.148 6.22137C405.601 7.87368 406.736 9.83039 407.486 11.975C408.236 14.1196 408.585 16.4081 408.513 18.7041V225.341C408.374 229.776 406.672 233.977 403.768 237.06C400.864 240.143 396.984 241.867 392.946 241.867C388.907 241.867 385.027 240.143 382.123 237.06C379.219 233.977 377.518 229.776 377.378 225.341Z" fill="black"/>
<path d="M457.783 3.01409H522.685C524.775 2.93484 526.858 3.31863 528.809 4.14261C530.761 4.96658 532.542 6.21382 534.045 7.81008C535.549 9.40634 536.745 11.3188 537.562 13.4337C538.378 15.5486 538.799 17.8225 538.799 20.12C538.799 22.4174 538.378 24.6913 537.562 26.8062C536.745 28.9211 535.549 30.8337 534.045 32.43C532.542 34.0262 530.761 35.2735 528.809 36.0975C526.858 36.9214 524.775 37.3052 522.685 37.226H473.36V101.35H516.158C520.284 101.35 524.241 103.152 527.159 106.358C530.077 109.564 531.716 113.912 531.716 118.446C531.716 122.98 530.077 127.329 527.159 130.535C524.241 133.741 520.284 135.542 516.158 135.542H473.36V206.859H522.685C526.812 206.859 530.769 208.66 533.686 211.866C536.604 215.073 538.243 219.421 538.243 223.955C538.243 228.489 536.604 232.837 533.686 236.043C530.769 239.25 526.812 241.051 522.685 241.051H457.783C455.733 241.084 453.698 240.665 451.798 239.818C449.899 238.972 448.172 237.716 446.722 236.124C445.272 234.532 444.126 232.637 443.354 230.55C442.582 228.463 442.198 226.228 442.225 223.975V20.1506C442.195 17.8945 442.577 15.6548 443.348 13.5636C444.119 11.4723 445.263 9.57194 446.713 7.97462C448.163 6.37729 449.89 5.11535 451.791 4.26337C453.693 3.41138 455.73 2.98664 457.783 3.01409Z" fill="black"/>
<path d="M670.476 62.9412V181.124C670.488 188.987 669.088 196.775 666.355 204.042C663.623 211.309 659.612 217.911 654.552 223.471C649.492 229.031 643.483 233.439 636.87 236.441C630.257 239.444 623.169 240.983 616.014 240.97H577.073C575.035 240.983 573.014 240.551 571.13 239.698C569.245 238.844 567.534 237.587 566.096 236C564.658 234.412 563.523 232.526 562.755 230.451C561.988 228.376 561.604 226.154 561.626 223.915V20.1508C561.601 17.8964 561.987 15.6594 562.761 13.5715C563.536 11.4836 564.682 9.58722 566.134 7.99398C567.586 6.40073 569.313 5.1429 571.214 4.29467C573.115 3.44643 575.151 3.02489 577.203 3.05497H616.144C623.291 3.06299 630.366 4.61878 636.966 7.63344C643.565 10.6481 649.559 15.0625 654.605 20.6242C659.651 26.186 663.65 32.7861 666.374 40.0471C669.097 47.3081 670.491 55.0877 670.476 62.9412ZM616.014 37.2873H592.668V206.798H616.014C619.084 206.812 622.126 206.157 624.964 204.871C627.802 203.585 630.381 201.694 632.55 199.306C634.719 196.919 636.436 194.083 637.602 190.962C638.768 187.841 639.359 184.498 639.342 181.124V62.9412C639.364 59.5643 638.776 56.2162 637.612 53.0906C636.449 49.9651 634.733 47.1243 632.563 44.7326C630.393 42.341 627.814 40.4461 624.973 39.1576C622.132 37.8691 619.087 37.2126 616.014 37.2262V37.2873Z" fill="black"/>
<path d="M780.069 135.909L808.255 219.269C809.053 221.366 809.45 223.622 809.421 225.896C809.391 228.17 808.936 230.412 808.084 232.485C807.231 234.557 806 236.414 804.466 237.94C802.932 239.466 801.129 240.629 799.168 241.357C795.299 242.886 791.039 242.702 787.291 240.842C783.543 238.982 780.601 235.594 779.086 231.393L748.915 142.674H731.411V225.341C731.411 229.875 729.771 234.223 726.854 237.429C723.936 240.635 719.979 242.437 715.853 242.437C711.726 242.437 707.769 240.635 704.851 237.429C701.934 234.223 700.295 229.875 700.295 225.341V20.1508C700.27 17.8981 700.655 15.6628 701.428 13.5763C702.201 11.4898 703.346 9.59427 704.796 8.0013C706.246 6.40833 707.971 5.15008 709.869 4.30062C711.768 3.45116 713.803 3.02761 715.853 3.05496H754.794C761.951 3.0469 769.039 4.59077 775.653 7.59798C782.266 10.6052 788.275 15.0166 793.334 20.5797C798.393 26.1428 802.404 32.7481 805.136 40.0172C807.868 47.2863 809.268 55.0764 809.256 62.9411V82.8896C809.371 93.8379 806.699 104.604 801.541 113.972C796.384 123.34 788.947 130.938 780.069 135.909ZM754.775 108.482C757.845 108.496 760.886 107.841 763.724 106.557C766.562 105.272 769.141 103.383 771.311 100.999C773.481 98.6137 775.2 95.7803 776.369 92.6617C777.538 89.5432 778.134 86.2012 778.121 82.8285V62.9411C778.136 59.5677 777.542 56.2244 776.374 53.1047C775.206 49.9849 773.487 47.1505 771.316 44.7651C769.145 42.3797 766.566 40.4906 763.727 39.2071C760.888 37.9236 757.845 37.271 754.775 37.2872H731.429V108.605L754.775 108.482Z" fill="black"/>
<path d="M831.285 182.571V61.4333C831.548 45.7498 837.403 30.8065 847.589 19.8176C857.776 8.82858 871.481 2.67188 885.756 2.67188C900.031 2.67188 913.736 8.82858 923.923 19.8176C934.109 30.8065 939.964 45.7498 940.228 61.4333V182.571C940.361 190.524 939.051 198.427 936.373 205.817C933.696 213.208 929.705 219.938 924.633 225.614C919.562 231.291 913.512 235.8 906.837 238.878C900.162 241.956 892.995 243.541 885.756 243.541C878.517 243.541 871.35 241.956 864.675 238.878C858 235.8 851.95 231.291 846.879 225.614C841.807 219.938 837.816 213.208 835.139 205.817C832.461 198.427 831.151 190.524 831.285 182.571ZM862.4 61.4333V182.571C862.4 189.375 864.86 195.9 869.239 200.711C873.617 205.522 879.555 208.225 885.747 208.225C891.939 208.225 897.877 205.522 902.255 200.711C906.633 195.9 909.093 189.375 909.093 182.571V61.4333C909.093 54.6295 906.633 48.1043 902.255 43.2933C897.877 38.4823 891.939 35.7794 885.747 35.7794C879.555 35.7794 873.617 38.4823 869.239 43.2933C864.86 48.1043 862.4 54.6295 862.4 61.4333Z" fill="black"/>
<path d="M1018.98 222.669V19.6155C1018.98 15.1594 1020.58 10.8857 1023.42 7.73475C1026.25 4.58375 1030.1 2.81348 1034.11 2.81348C1038.13 2.81348 1041.98 4.58375 1044.81 7.73475C1047.65 10.8857 1049.25 15.1594 1049.25 19.6155V222.669C1049.25 227.125 1047.65 231.399 1044.81 234.55C1041.98 237.701 1038.13 239.471 1034.11 239.471C1030.1 239.471 1026.25 237.701 1023.42 234.55C1020.58 231.399 1018.98 227.125 1018.98 222.669Z" fill="black"/>
<path d="M1173.41 229.923C1167.04 214.882 1160.36 199.841 1153.24 184.085C1141.45 157.498 1126.17 123.575 1113.11 93.1479V222.563C1113.11 227.015 1111.5 231.286 1108.63 234.434C1105.77 237.583 1101.88 239.352 1097.83 239.352C1093.77 239.352 1089.89 237.583 1087.02 234.434C1084.16 231.286 1082.55 227.015 1082.55 222.563V19.6644C1082.42 15.8346 1083.54 12.0807 1085.7 9.06984C1087.85 6.059 1090.91 3.98623 1094.33 3.21985C1097.71 2.39153 1101.24 2.83734 1104.36 4.48544C1107.48 6.13355 1110 8.88783 1111.52 12.3038C1117.9 27.3697 1124.58 42.4111 1131.68 58.1417C1143.45 84.7287 1158.1 118.676 1171.79 149.227V19.6644C1171.94 15.3196 1173.62 11.2083 1176.47 8.19326C1179.32 5.17819 1183.13 3.49377 1187.09 3.49377C1191.04 3.49377 1194.85 5.17819 1197.7 8.19326C1200.55 11.2083 1202.23 15.3196 1202.38 19.6644V222.563C1202.38 226.359 1201.22 230.046 1199.08 233.029C1196.94 236.012 1193.95 238.117 1190.59 239.007C1187.21 239.905 1183.66 239.491 1180.52 237.836C1177.39 236.18 1174.88 233.384 1173.41 229.923Z" fill="black"/>
<path d="M1342.8 62.9231V179.337C1342.81 187.077 1341.44 194.744 1338.75 201.899C1336.06 209.053 1332.11 215.554 1327.13 221.029C1322.15 226.503 1316.23 230.843 1309.72 233.8C1303.21 236.757 1296.23 238.272 1289.19 238.259H1251.01C1248.99 238.289 1246.98 237.873 1245.11 237.037C1243.23 236.201 1241.53 234.96 1240.1 233.389C1238.67 231.819 1237.54 229.949 1236.78 227.891C1236.02 225.833 1235.64 223.628 1235.67 221.406V20.8533C1235.64 18.634 1236.02 16.4319 1236.79 14.3766C1237.55 12.3214 1238.68 10.4546 1240.11 8.88635C1241.54 7.31809 1243.24 6.07996 1245.11 5.24514C1246.98 4.41032 1248.99 3.99563 1251.01 4.02542H1289.19C1296.23 4.00916 1303.21 5.52154 1309.72 8.47566C1316.23 11.4298 1322.15 15.7675 1327.13 21.2399C1332.11 26.7123 1336.06 33.2115 1338.75 40.3647C1341.44 47.5178 1342.81 55.184 1342.8 62.9231ZM1289.19 37.6813H1266.21V204.505H1289.19C1292.21 204.518 1295.21 203.873 1298 202.607C1300.79 201.342 1303.33 199.481 1305.47 197.132C1307.61 194.783 1309.3 191.992 1310.45 188.921C1311.59 185.849 1312.18 182.559 1312.16 179.238V62.9231C1312.18 59.6046 1311.59 56.3164 1310.44 53.2481C1309.29 50.1797 1307.6 47.3918 1305.46 45.0453C1303.33 42.6988 1300.79 40.84 1297.99 39.5761C1295.2 38.3122 1292.21 37.6682 1289.19 37.6813Z" fill="black"/>
<path d="M1423.01 205.855C1429.08 205.823 1434.9 203.158 1439.2 198.439C1443.5 193.72 1445.93 187.33 1445.95 180.657V19.6372C1445.95 15.1818 1447.57 10.909 1450.44 7.75852C1453.3 4.60809 1457.2 2.83813 1461.25 2.83813C1465.31 2.83813 1469.2 4.60809 1472.07 7.75852C1474.94 10.909 1476.55 15.1818 1476.55 19.6372V180.657C1476.7 188.481 1475.42 196.258 1472.79 203.534C1470.17 210.809 1466.25 217.435 1461.26 223.025C1456.27 228.615 1450.32 233.056 1443.75 236.088C1437.18 239.12 1430.12 240.682 1423 240.682C1415.87 240.682 1408.81 239.12 1402.24 236.088C1395.67 233.056 1389.72 228.615 1384.73 223.025C1379.75 217.435 1375.83 210.809 1373.2 203.534C1370.57 196.258 1369.3 188.481 1369.44 180.657V19.6372C1369.44 15.1753 1371.06 10.8961 1373.93 7.74108C1376.8 4.58603 1380.7 2.81348 1384.76 2.81348C1388.83 2.81348 1392.72 4.58603 1395.6 7.74108C1398.47 10.8961 1400.08 15.1753 1400.08 19.6372V180.657C1400.07 183.967 1400.66 187.248 1401.8 190.309C1402.95 193.371 1404.64 196.153 1406.77 198.495C1408.9 200.837 1411.43 202.693 1414.22 203.957C1417.01 205.22 1419.99 205.865 1423.01 205.855Z" fill="black"/>
<path d="M1729.56 20.8408C1729.59 23.0575 1729.21 25.2576 1728.45 27.3114C1727.69 29.3652 1726.56 31.2309 1725.13 32.7984C1723.7 34.366 1722 35.6036 1720.12 36.4381C1718.25 37.2727 1716.24 37.6873 1714.22 37.6575H1688.02V222.591C1688.1 224.855 1687.76 227.113 1687.02 229.231C1686.29 231.348 1685.17 233.281 1683.73 234.914C1682.3 236.546 1680.58 237.845 1678.68 238.732C1676.78 239.619 1674.73 240.076 1672.67 240.076C1670.6 240.076 1668.55 239.619 1666.65 238.732C1664.75 237.845 1663.03 236.546 1661.6 234.914C1660.16 233.281 1659.05 231.348 1658.31 229.231C1657.57 227.113 1657.24 224.855 1657.32 222.591V37.6575H1631.11C1627.04 37.6575 1623.14 35.8856 1620.27 32.7319C1617.39 29.5782 1615.77 25.3009 1615.77 20.8408C1615.77 16.3808 1617.39 12.1035 1620.27 8.94976C1623.14 5.79604 1627.04 4.02423 1631.11 4.02423H1714.33C1716.35 4.01092 1718.34 4.43775 1720.2 5.27969C1722.06 6.12163 1723.75 7.36177 1725.17 8.92764C1726.59 10.4935 1727.7 12.3536 1728.46 14.3992C1729.21 16.4447 1729.59 18.6347 1729.56 20.8408Z" fill="black"/>
<path d="M1828.49 134.692L1856.14 216.666C1856.92 218.732 1857.3 220.952 1857.27 223.189C1857.24 225.426 1856.79 227.631 1855.95 229.668C1855.11 231.704 1853.89 233.529 1852.39 235.029C1850.88 236.529 1849.11 237.672 1847.18 238.386C1843.37 239.862 1839.19 239.66 1835.51 237.823C1831.83 235.985 1828.94 232.654 1827.44 228.525L1797.86 141.299H1780.68V222.657C1780.68 227.116 1779.07 231.393 1776.21 234.546C1773.35 237.699 1769.46 239.471 1765.41 239.471C1761.36 239.471 1757.48 237.699 1754.61 234.546C1751.75 231.393 1750.14 227.116 1750.14 222.657V20.8395C1750.11 18.6232 1750.49 16.4234 1751.25 14.3699C1752.01 12.3165 1753.13 10.451 1754.55 8.8837C1755.98 7.31639 1757.67 6.079 1759.54 5.24459C1761.4 4.41017 1763.4 3.99559 1765.41 4.02543H1803.59C1810.61 4.00918 1817.57 5.52031 1824.06 8.472C1830.55 11.4237 1836.45 15.7579 1841.41 21.2257C1846.38 26.6936 1850.32 33.1875 1853 40.3347C1855.68 47.4819 1857.05 55.1418 1857.04 62.8745V82.5977C1857.16 93.3468 1854.55 103.919 1849.5 113.123C1844.46 122.327 1837.18 129.797 1828.49 134.692ZM1803.68 107.72C1806.69 107.733 1809.67 107.09 1812.46 105.827C1815.24 104.564 1817.77 102.707 1819.9 100.362C1822.03 98.0175 1823.72 95.232 1824.87 92.1661C1826.01 89.1003 1826.6 85.8148 1826.58 82.4991V62.7759C1826.6 59.4602 1826.01 56.1746 1824.87 53.1087C1823.72 50.0429 1822.03 47.2574 1819.9 44.9128C1817.77 42.5682 1815.24 40.7109 1812.46 39.4481C1809.67 38.1852 1806.69 37.5418 1803.68 37.5548H1780.77V107.622L1803.68 107.72Z" fill="black"/>
<path d="M1882.69 222.669V19.6155C1882.69 15.1594 1884.29 10.8857 1887.13 7.73475C1889.96 4.58375 1893.81 2.81348 1897.82 2.81348C1901.84 2.81348 1905.69 4.58375 1908.52 7.73475C1911.36 10.8857 1912.96 15.1594 1912.96 19.6155V222.669C1912.96 227.125 1911.36 231.399 1908.52 234.55C1905.69 237.701 1901.84 239.471 1897.82 239.471C1893.81 239.471 1889.96 237.701 1887.13 234.55C1884.29 231.399 1882.69 227.125 1882.69 222.669Z" fill="black"/>
<path d="M1961.53 4.02544H2025.36C2029.42 4.02544 2033.31 5.79919 2036.18 8.95637C2039.05 12.1135 2040.67 16.3955 2040.67 20.8605C2040.67 25.3254 2039.05 29.6074 2036.18 32.7646C2033.31 35.9218 2029.42 37.6955 2025.36 37.6955H1976.84V100.913H2019.05C2023.11 100.913 2027 102.687 2029.87 105.844C2032.75 109.001 2034.36 113.283 2034.36 117.748C2034.36 122.213 2032.75 126.495 2029.87 129.652C2027 132.809 2023.11 134.583 2019.05 134.583H1976.84V204.589H2025.36C2029.42 204.589 2033.31 206.363 2036.18 209.52C2039.05 212.677 2040.67 216.959 2040.67 221.424C2040.67 225.889 2039.05 230.171 2036.18 233.328C2033.31 236.486 2029.42 238.259 2025.36 238.259H1961.53C1959.52 238.286 1957.51 237.868 1955.65 237.029C1953.78 236.191 1952.08 234.949 1950.65 233.377C1949.23 231.806 1948.11 229.936 1947.35 227.879C1946.59 225.822 1946.22 223.619 1946.25 221.4V20.8605C1946.22 18.6426 1946.59 16.4405 1947.35 14.3846C1948.11 12.3287 1949.23 10.4607 1950.66 8.89113C1952.08 7.32151 1953.78 6.08216 1955.65 5.24642C1957.52 4.41068 1959.52 3.99548 1961.53 4.02544Z" fill="black"/>
<path d="M2129.84 181.012C2130.2 177.184 2129.79 173.317 2128.63 169.687C2127.47 166.058 2125.59 162.758 2123.14 160.023L2072.33 102.602C2066.96 96.6903 2062.84 89.5458 2060.26 81.6772C2057.68 73.8086 2056.7 65.4096 2057.4 57.0785C2057.95 48.7798 2060.11 40.7069 2063.72 33.4028C2067.34 26.0987 2072.33 19.7327 2078.36 14.7328C2084.43 9.74159 2091.38 6.19995 2098.76 4.33377C2106.15 2.46759 2113.8 2.31775 2121.24 3.89383C2128.64 5.58663 2135.63 8.98561 2141.76 13.8678C2147.89 18.75 2153.01 25.0052 2156.79 32.2228C2158.74 36.1409 2159.23 40.7396 2158.16 45.0498C2157.09 49.36 2154.55 53.0452 2151.07 55.3294C2149.34 56.4158 2147.43 57.1146 2145.46 57.3855C2143.49 57.6564 2141.48 57.4941 2139.57 56.908C2137.65 56.3218 2135.86 55.3235 2134.29 53.9702C2132.73 52.617 2131.42 50.9357 2130.44 49.0231C2128.8 45.9318 2126.6 43.244 2123.98 41.1257C2121.36 39.0073 2118.37 37.5033 2115.21 36.7062C2111.99 36.0084 2108.68 36.0874 2105.5 36.938C2102.32 37.7886 2099.34 39.3905 2096.77 41.633C2094.22 43.7921 2092.12 46.5204 2090.59 49.6393C2089.06 52.7582 2088.15 56.1974 2087.91 59.7319C2087.67 63.2665 2088.11 66.8166 2089.21 70.1502C2090.3 73.4837 2092.02 76.5255 2094.25 79.0765L2144.72 136.498C2150.2 142.622 2154.43 149.965 2157.13 158.037C2159.83 166.109 2160.93 174.723 2160.36 183.303C2159.74 191.859 2157.49 200.177 2153.77 207.717C2150.05 215.257 2144.94 221.853 2138.76 227.077C2132.57 232.29 2125.44 235.988 2117.86 237.921C2110.27 239.855 2102.39 239.981 2094.76 238.29C2087.12 236.599 2079.9 233.132 2073.58 228.118C2067.26 223.104 2061.98 216.661 2058.09 209.217C2057.01 207.328 2056.29 205.213 2055.98 203.005C2055.66 200.796 2055.76 198.54 2056.27 196.376C2056.78 194.211 2057.68 192.184 2058.92 190.419C2060.17 188.653 2061.72 187.187 2063.5 186.111C2067.05 183.962 2071.22 183.415 2075.13 184.587C2079.04 185.759 2082.39 188.557 2084.46 192.392C2086.17 195.731 2088.51 198.62 2091.33 200.862C2094.15 203.104 2097.38 204.645 2100.79 205.378C2104.2 206.111 2107.72 206.019 2111.09 205.109C2114.47 204.198 2117.63 202.49 2120.35 200.103C2126.36 195.718 2128.9 189.067 2129.84 181.012Z" fill="black"/>
<path d="M1573.59 180.968C1573.94 177.143 1573.52 173.279 1572.36 169.652C1571.21 166.025 1569.34 162.725 1566.89 159.988L1516.12 102.587C1510.75 96.6781 1506.62 89.5376 1504.04 81.6727C1501.45 73.8078 1500.47 65.4115 1501.16 57.0802C1501.71 48.7744 1503.87 40.696 1507.5 33.3897C1511.12 26.0833 1516.12 19.7188 1522.17 14.7253C1528.24 9.73854 1535.18 6.19989 1542.56 4.33449C1549.93 2.46909 1557.58 2.31774 1565.01 3.89021C1572.41 5.5792 1579.41 8.97549 1585.53 13.8561C1591.66 18.7367 1596.78 24.9912 1600.56 32.2089C1602.5 36.1256 1602.99 40.7226 1601.93 45.0312C1600.86 49.3399 1598.32 53.0238 1594.84 55.3071C1593.11 56.3937 1591.21 57.0927 1589.23 57.3638C1587.26 57.635 1585.25 57.473 1583.34 56.8871C1581.42 56.3012 1579.63 55.3031 1578.06 53.9501C1576.49 52.5971 1575.19 50.9158 1574.21 49.0032C1572.57 45.9129 1570.37 43.2261 1567.75 41.1086C1565.13 38.991 1562.15 37.4875 1558.98 36.6907C1555.78 35.9935 1552.47 36.0729 1549.29 36.9232C1546.12 37.7735 1543.15 39.3746 1540.59 41.6157C1538.03 43.7698 1535.92 46.4946 1534.39 49.6116C1532.86 52.7285 1531.95 56.1671 1531.71 59.7016C1531.47 63.2361 1531.91 66.7867 1533 70.1205C1534.09 73.4542 1535.81 76.4958 1538.04 79.0456L1588.5 136.446C1593.97 142.57 1598.2 149.911 1600.89 157.979C1603.59 166.048 1604.69 174.658 1604.13 183.234C1603.51 191.789 1601.27 200.105 1597.55 207.643C1593.83 215.181 1588.72 221.773 1582.54 226.992C1576.36 232.226 1569.24 235.943 1561.66 237.895C1554.07 239.846 1546.2 239.988 1538.56 238.309C1530.92 236.63 1523.7 233.17 1517.37 228.16C1511.04 223.151 1505.76 216.708 1501.87 209.262C1500.79 207.376 1500.06 205.264 1499.74 203.056C1499.43 200.849 1499.52 198.593 1500.03 196.429C1500.53 194.264 1501.43 192.236 1502.68 190.471C1503.92 188.706 1505.48 187.24 1507.25 186.164C1510.8 184.016 1514.97 183.47 1518.87 184.641C1522.78 185.812 1526.12 188.609 1528.19 192.444C1529.9 195.781 1532.24 198.669 1535.06 200.911C1537.88 203.152 1541.1 204.692 1544.51 205.425C1547.92 206.158 1551.43 206.066 1554.81 205.155C1558.18 204.245 1561.33 202.537 1564.05 200.151C1570.08 195.669 1572.6 189.021 1573.59 180.968Z" fill="black"/>
</svg>
