<svg width="185" height="48" viewBox="0 0 185 48" fill="none" xmlns="http://www.w3.org/2000/svg">
<rect width="184.045" height="47.0635" rx="4" fill="white"/>
<path d="M47.5565 22.6725C48.2077 23.0602 48.2077 24.0032 47.5565 24.391L26.5112 36.9212C25.8446 37.318 24.9996 36.8377 24.9996 36.0619L24.9996 11.0015C24.9996 10.2258 25.8447 9.74542 26.5112 10.1423L47.5565 22.6725Z" fill="black"/>
<path d="M62.5791 31.5317V17.6117H68.5191C69.6391 17.6117 70.5991 17.8117 71.4191 18.1917C72.2391 18.5717 72.8591 19.1117 73.2991 19.8117C73.7391 20.5117 73.9591 21.3317 73.9591 22.2717C73.9591 23.2517 73.7191 24.0917 73.2591 24.7917C72.7791 25.4917 72.1391 26.0317 71.3191 26.4117L74.7191 31.5317H71.0191L68.0991 26.9717H65.8391V31.5317H62.5791ZM65.8391 24.2117H68.0591C68.9591 24.2117 69.6191 24.0517 70.0391 23.7117C70.4591 23.3717 70.6591 22.8917 70.6591 22.2317C70.6591 21.5917 70.4591 21.1117 70.0391 20.8117C69.6191 20.5117 68.9591 20.3717 68.0591 20.3717H65.8391V24.2117ZM77.7872 20.0917C77.2872 20.0917 76.8672 19.9117 76.5272 19.5717C76.1672 19.2317 75.9872 18.7917 75.9872 18.2917C75.9872 17.7917 76.1672 17.3517 76.5272 17.0117C76.8672 16.6717 77.2872 16.4917 77.7872 16.4917C78.2872 16.4917 78.7272 16.6717 79.0872 17.0117C79.4272 17.3517 79.6072 17.7917 79.6072 18.2917C79.6072 18.7917 79.4272 19.2317 79.0872 19.5717C78.7272 19.9117 78.2872 20.0917 77.7872 20.0917ZM76.2672 31.5317V21.1117H79.3072V31.5317H76.2672ZM81.8359 35.6317V21.1117H84.7359V22.3117C85.0759 21.8317 85.5159 21.4517 86.0159 21.1917C86.5159 20.9317 87.0959 20.8117 87.7559 20.8117C88.6559 20.8117 89.4359 21.0517 90.1359 21.5117C90.8159 21.9717 91.3559 22.6317 91.7559 23.4517C92.1359 24.2917 92.3359 25.2517 92.3359 26.3317C92.3359 27.4317 92.1359 28.3717 91.7559 29.1917C91.3559 30.0117 90.8159 30.6717 90.1359 31.1317C89.4359 31.5917 88.6559 31.8317 87.7559 31.8317C87.1359 31.8317 86.5959 31.7117 86.1159 31.4717C85.6159 31.2317 85.1959 30.8917 84.8559 30.4517V35.6317H81.8359ZM86.9959 29.1717C87.6559 29.1717 88.2159 28.9117 88.6359 28.4117C89.0559 27.9117 89.2559 27.2117 89.2559 26.3317C89.2559 25.4517 89.0559 24.7517 88.6359 24.2317C88.2159 23.7317 87.6559 23.4717 86.9959 23.4717C86.3359 23.4717 85.7759 23.7317 85.3559 24.2317C84.9359 24.7517 84.7159 25.4517 84.7159 26.3317C84.7159 27.2117 84.9359 27.9117 85.3559 28.4117C85.7759 28.9117 86.3359 29.1717 86.9959 29.1717ZM97.3197 26.4717V31.5317H94.2797V21.1117H97.1797V22.7917C97.4997 22.2317 97.8997 21.7917 98.3997 21.4917C98.8797 21.1917 99.4397 21.0317 100.06 21.0317H100.52V23.8717H99.9597C99.1797 23.8717 98.5597 24.1117 98.0597 24.5717C97.5597 25.0317 97.3197 25.6717 97.3197 26.4717ZM106.874 31.8317C105.834 31.8317 104.914 31.5917 104.114 31.1317C103.314 30.6717 102.694 30.0117 102.234 29.1717C101.774 28.3517 101.554 27.3917 101.554 26.3117C101.554 25.2317 101.774 24.2717 102.234 23.4517C102.694 22.6317 103.314 21.9717 104.114 21.5117C104.914 21.0517 105.834 20.8117 106.874 20.8117C107.914 20.8117 108.834 21.0517 109.654 21.5117C110.454 21.9717 111.074 22.6317 111.534 23.4517C111.994 24.2717 112.214 25.2317 112.214 26.3117C112.214 27.3917 111.994 28.3517 111.534 29.1717C111.074 30.0117 110.454 30.6717 109.654 31.1317C108.834 31.5917 107.914 31.8317 106.874 31.8317ZM106.874 29.1717C107.534 29.1717 108.094 28.9117 108.514 28.3917C108.934 27.8917 109.134 27.1917 109.134 26.3117C109.134 25.4317 108.934 24.7317 108.514 24.2317C108.094 23.7317 107.534 23.4717 106.874 23.4717C106.214 23.4717 105.674 23.7317 105.254 24.2317C104.834 24.7317 104.634 25.4317 104.634 26.3117C104.634 27.1917 104.834 27.8917 105.254 28.3917C105.674 28.9117 106.214 29.1717 106.874 29.1717ZM118.168 31.8317C117.268 31.8317 116.488 31.5917 115.808 31.1317C115.108 30.6717 114.568 30.0117 114.188 29.1717C113.788 28.3517 113.588 27.3917 113.588 26.3117C113.588 25.2317 113.788 24.2717 114.188 23.4517C114.568 22.6317 115.108 21.9717 115.808 21.5117C116.488 21.0517 117.268 20.8117 118.168 20.8117C118.788 20.8117 119.328 20.9317 119.828 21.1717C120.308 21.4117 120.728 21.7517 121.068 22.1917V17.0317H124.088V31.5317H121.188V30.3317C120.848 30.8117 120.408 31.1717 119.908 31.4317C119.408 31.7117 118.828 31.8317 118.168 31.8317ZM118.928 29.1717C119.588 29.1717 120.148 28.9117 120.568 28.3917C120.988 27.8917 121.208 27.1917 121.208 26.3317C121.208 25.4517 120.988 24.7517 120.568 24.2317C120.148 23.7317 119.588 23.4717 118.928 23.4717C118.268 23.4717 117.728 23.7317 117.308 24.2317C116.888 24.7317 116.668 25.4317 116.668 26.3317C116.668 27.2117 116.888 27.9117 117.308 28.4117C117.728 28.9117 118.268 29.1717 118.928 29.1717ZM132.951 27.2117V21.1117H135.991V31.5317H133.091V30.4117C132.771 30.8717 132.371 31.2117 131.891 31.4517C131.411 31.7117 130.871 31.8317 130.271 31.8317C129.051 31.8317 128.111 31.4317 127.471 30.6317C126.831 29.8517 126.511 28.8117 126.511 27.5517V21.1117H129.551V27.2117C129.551 27.7917 129.691 28.2517 129.971 28.5917C130.251 28.9517 130.671 29.1317 131.231 29.1317C131.771 29.1317 132.191 28.9517 132.491 28.6117C132.791 28.2717 132.951 27.7917 132.951 27.2117ZM143.148 31.8317C142.088 31.8317 141.168 31.5917 140.388 31.1117C139.608 30.6517 138.988 29.9917 138.568 29.1717C138.148 28.3517 137.928 27.3917 137.928 26.3117C137.928 25.2517 138.148 24.2917 138.568 23.4717C138.988 22.6517 139.608 21.9917 140.388 21.5117C141.168 21.0517 142.088 20.8117 143.148 20.8117C144.048 20.8117 144.828 20.9917 145.488 21.3317C146.148 21.6917 146.688 22.1717 147.088 22.7517C147.488 23.3517 147.728 24.0117 147.808 24.7317H144.728C144.668 24.3517 144.508 24.0517 144.248 23.8117C143.988 23.5917 143.608 23.4717 143.108 23.4717C142.488 23.4717 141.968 23.7317 141.588 24.2317C141.208 24.7517 141.008 25.4517 141.008 26.3117C141.008 27.2117 141.208 27.9117 141.588 28.4117C141.968 28.9117 142.488 29.1717 143.108 29.1717C143.608 29.1717 143.988 29.0717 144.268 28.8517C144.528 28.6317 144.708 28.3517 144.768 27.9717H147.808C147.728 28.6917 147.488 29.3517 147.088 29.9317C146.688 30.5117 146.148 30.9717 145.488 31.3117C144.828 31.6717 144.048 31.8317 143.148 31.8317ZM151.202 20.0917C150.702 20.0917 150.282 19.9117 149.942 19.5717C149.582 19.2317 149.402 18.7917 149.402 18.2917C149.402 17.7917 149.582 17.3517 149.942 17.0117C150.282 16.6717 150.702 16.4917 151.202 16.4917C151.702 16.4917 152.142 16.6717 152.502 17.0117C152.842 17.3517 153.022 17.7917 153.022 18.2917C153.022 18.7917 152.842 19.2317 152.502 19.5717C152.142 19.9117 151.702 20.0917 151.202 20.0917ZM149.682 31.5317V21.1117H152.722V31.5317H149.682Z" fill="black"/>
</svg>
