<svg width="536" height="165" viewBox="0 0 536 165" fill="none" xmlns="http://www.w3.org/2000/svg">
<path d="M28.3931 163.354H1V31.6463H28.3931V163.354Z" fill="currentcolor"/>
<path d="M29.9937 31.6463H57.3868L74.61 89.1037V31.6463H102.003V163.354H74.61L57.3868 105.896V163.354H29.9937V31.6463Z" fill="currentcolor"/>
<path d="M143.539 83.8354C149.006 88.0061 153.326 91.8476 156.497 95.3598C159.668 98.872 162.184 103.317 164.043 108.695C166.011 113.963 166.995 120.549 166.995 128.451C166.995 140.634 164.48 149.799 159.45 155.945C154.529 161.982 146.655 165 135.829 165C128.175 165 122.051 163.683 117.458 161.049C112.865 158.415 109.42 153.64 107.124 146.726C104.828 139.811 103.679 129.988 103.679 117.256H131.072C131.072 125.488 131.455 130.921 132.221 133.555C132.986 136.189 134.189 137.506 135.829 137.506C137.47 137.506 138.509 136.848 138.946 135.53C139.383 134.213 139.602 131.854 139.602 128.451C139.602 125.488 139.383 123.128 138.946 121.372C138.509 119.506 137.524 117.585 135.993 115.61C134.462 113.634 132.002 111.22 128.612 108.366L124.675 105.238C119.864 101.396 116.036 97.9939 113.193 95.0305C110.459 92.0671 108.108 88.1707 106.14 83.3415C104.281 78.4024 103.351 72.311 103.351 65.0671C103.351 41.689 113.576 30 134.025 30C144.632 30 152.451 33.3476 157.481 40.0427C162.512 46.6281 165.027 57 165.027 71.1585H137.798C137.798 66 137.47 62.4329 136.814 60.4573C136.267 58.4817 135.337 57.4939 134.025 57.4939C132.713 57.4939 131.838 58.1524 131.401 59.4695C130.963 60.6768 130.744 62.5427 130.744 65.0671C130.744 67.9207 131.127 70.3354 131.893 72.311C132.767 74.1768 134.025 75.878 135.665 77.4146C137.415 78.9512 140.039 81.0915 143.539 83.8354Z" fill="currentcolor"/>
<path d="M165.992 31.6463H226.027V59.1402H209.624V163.354H182.395V59.1402H165.992V31.6463Z" fill="currentcolor"/>
<path d="M286.11 163.354H258.716L257.404 142.28H247.398L246.086 163.354H218.693L233.784 31.6463H271.019L286.11 163.354ZM252.483 63.9146L249.203 114.951H255.764L252.483 63.9146Z" fill="currentcolor"/>
<path d="M335.989 94.3719C345.393 99.4207 350.096 108.695 350.096 122.195V128.945C350.096 137.067 348.893 143.652 346.487 148.701C344.191 153.64 340.418 157.317 335.169 159.732C329.92 162.146 322.812 163.354 313.845 163.354H286.452V31.6463H313.845C323.031 31.6463 330.139 32.8537 335.169 35.2683C340.199 37.6829 343.698 41.5244 345.667 46.7927C347.745 52.061 348.783 59.3598 348.783 68.689V69.0183C348.783 81.5305 344.519 89.9817 335.989 94.3719ZM321.39 68.689C321.39 64.8476 320.898 62.3232 319.914 61.1159C319.039 59.7988 317.071 59.1402 314.009 59.1402H313.845V82.3537H314.009C316.415 82.3537 318.11 82.0793 319.094 81.5305C320.078 80.9817 320.679 80.1037 320.898 78.8963C321.226 77.689 321.39 75.6585 321.39 72.8049V68.689ZM313.845 109.848V135.86H314.009C317.18 135.86 319.422 135.256 320.734 134.049C322.046 132.841 322.703 130.482 322.703 126.97V118.409C322.703 114.896 322.101 112.591 320.898 111.494C319.695 110.396 317.399 109.848 314.009 109.848H313.845Z" fill="currentcolor"/>
<path d="M383.466 30C404.571 30 415.124 42.622 415.124 67.8659V127.134C415.124 152.378 404.571 165 383.466 165C362.36 165 351.808 152.378 351.808 127.134V67.8659C351.808 42.622 362.36 30 383.466 30ZM387.73 70.0061C387.73 66.2744 387.621 63.6402 387.402 62.1037C387.293 60.4573 386.965 59.3049 386.418 58.6463C385.871 57.8781 384.887 57.4939 383.466 57.4939C382.044 57.4939 381.06 57.8781 380.513 58.6463C379.966 59.3049 379.584 60.4573 379.365 62.1037C379.256 63.6402 379.201 66.2744 379.201 70.0061V124.994C379.201 128.726 379.256 131.415 379.365 133.061C379.584 134.598 379.966 135.75 380.513 136.518C381.06 137.177 382.044 137.506 383.466 137.506C384.887 137.506 385.871 137.177 386.418 136.518C386.965 135.75 387.293 134.598 387.402 133.061C387.621 131.415 387.73 128.726 387.73 124.994V70.0061Z" fill="currentcolor"/>
<path d="M441.353 31.6463L447.75 131.085L453.983 31.6463H481.377L466.286 163.354H429.051L413.96 31.6463H441.353Z" fill="currentcolor"/>
<path d="M536 163.354H508.607L507.295 142.28H497.289L495.977 163.354H468.583L483.674 31.6463H520.909L536 163.354ZM502.374 63.9146L499.093 114.951H505.654L502.374 63.9146Z" fill="currentcolor"/>
<path d="M0 0.35366H5.9171V22.7402H10.4524V28.6463H0V0.35366Z" fill="currentcolor"/>
<path d="M25.4619 28.6463H19.5448L19.2613 24.1195H17.1L16.8165 28.6463H10.8994L14.1591 0.35366H22.2021L25.4619 28.6463ZM18.1984 7.28537L17.4897 18.2488H18.907L18.1984 7.28537Z" fill="currentcolor"/>
<path d="M36.2362 13.828C38.2676 14.9126 39.2833 16.9049 39.2833 19.8049V21.2549C39.2833 22.9996 39.0235 24.4142 38.5038 25.4988C38.0078 26.5598 37.1928 27.3496 36.059 27.8683C34.9252 28.387 33.3898 28.6463 31.4529 28.6463H25.5358V0.35366H31.4529C33.4371 0.35366 34.9724 0.613009 36.059 1.13171C37.1456 1.65041 37.9015 2.47561 38.3266 3.60732C38.7754 4.73903 38.9998 6.30691 38.9998 8.31098V8.38171C38.9998 11.0695 38.0786 12.885 36.2362 13.828ZM33.0827 8.31098C33.0827 7.48577 32.9764 6.9435 32.7639 6.68415C32.5749 6.40122 32.1497 6.25976 31.4883 6.25976H31.4529V11.2463H31.4883C32.008 11.2463 32.3741 11.1874 32.5867 11.0695C32.7993 10.9516 32.9292 10.763 32.9764 10.5037C33.0473 10.2443 33.0827 9.80813 33.0827 9.19512V8.31098ZM31.4529 17.1524V22.7402H31.4883C32.1733 22.7402 32.6576 22.6106 32.941 22.3512C33.2245 22.0919 33.3662 21.585 33.3662 20.8305V18.9915C33.3662 18.237 33.2363 17.7419 32.9764 17.5061C32.7166 17.2703 32.2206 17.1524 31.4883 17.1524H31.4529Z" fill="currentcolor"/>
<path d="M46.4914 0C51.0503 0 53.3298 2.71138 53.3298 8.13415V20.8659C53.3298 26.2886 51.0503 29 46.4914 29C41.9326 29 39.6531 26.2886 39.6531 20.8659V8.13415C39.6531 2.71138 41.9326 0 46.4914 0ZM47.4127 8.5939C47.4127 7.79228 47.3891 7.22642 47.3418 6.89634C47.3182 6.54268 47.2473 6.29512 47.1292 6.15366C47.0111 5.98862 46.7985 5.9061 46.4914 5.9061C46.1844 5.9061 45.9718 5.98862 45.8537 6.15366C45.7356 6.29512 45.6529 6.54268 45.6057 6.89634C45.582 7.22642 45.5702 7.79228 45.5702 8.5939V20.4061C45.5702 21.2077 45.582 21.7854 45.6057 22.139C45.6529 22.4691 45.7356 22.7167 45.8537 22.8817C45.9718 23.0232 46.1844 23.0939 46.4914 23.0939C46.7985 23.0939 47.0111 23.0232 47.1292 22.8817C47.2473 22.7167 47.3182 22.4691 47.3418 22.139C47.3891 21.7854 47.4127 21.2077 47.4127 20.4061V8.5939Z" fill="currentcolor"/>
<path d="M58.9955 0.35366L60.3774 21.7146L61.7238 0.35366H67.6409L64.3812 28.6463H56.3382L53.0784 0.35366H58.9955Z" fill="currentcolor"/>
<path d="M73.6665 28.6463H67.7494V0.35366H73.6665V28.6463Z" fill="currentcolor"/>
<path d="M82.6222 11.5646C83.8032 12.4606 84.7362 13.2858 85.4213 14.0402C86.1063 14.7947 86.6496 15.7496 87.0511 16.9049C87.4763 18.0366 87.6889 19.4512 87.6889 21.1488C87.6889 23.7659 87.1456 25.7346 86.059 27.0549C84.9961 28.3516 83.2954 29 80.9569 29C79.3034 29 77.9806 28.7171 76.9885 28.1512C75.9964 27.5854 75.2523 26.5598 74.7563 25.0744C74.2603 23.589 74.0122 21.4789 74.0122 18.7439H79.9293C79.9293 20.5122 80.012 21.6793 80.1774 22.2451C80.3427 22.811 80.6025 23.0939 80.9569 23.0939C81.3112 23.0939 81.5356 22.9524 81.6301 22.6695C81.7245 22.3866 81.7718 21.8797 81.7718 21.1488C81.7718 20.5122 81.7245 20.0053 81.6301 19.628C81.5356 19.2272 81.323 18.8146 80.9923 18.3902C80.6616 17.9659 80.1301 17.4472 79.3979 16.8341L78.5475 16.1622C77.5082 15.337 76.6814 14.6061 76.0673 13.9695C75.4767 13.3329 74.9689 12.4959 74.5437 11.4585C74.1421 10.3976 73.9414 9.08903 73.9414 7.53293C73.9414 2.51098 76.15 0 80.5671 0C82.8584 0 84.5473 0.719106 85.6339 2.15732C86.7204 3.57195 87.2637 5.8 87.2637 8.84147H81.382C81.382 7.73333 81.3112 6.96707 81.1695 6.54268C81.0513 6.11829 80.8506 5.9061 80.5671 5.9061C80.2837 5.9061 80.0947 6.04756 80.0002 6.33049C79.9057 6.58984 79.8585 6.99065 79.8585 7.53293C79.8585 8.14594 79.9412 8.66464 80.1065 9.08903C80.2955 9.48984 80.5671 9.85529 80.9214 10.1854C81.2994 10.5154 81.8663 10.9752 82.6222 11.5646Z" fill="currentcolor"/>
<path d="M102 28.6463H96.0829L95.7994 24.1195H93.6381L93.3546 28.6463H87.4376L90.6973 0.35366H98.7403L102 28.6463ZM94.7365 7.28537L94.0279 18.2488H95.4451L94.7365 7.28537Z" fill="currentcolor"/>
</svg>
